<?xml version="1.0" encoding="utf-8"?>
<!-- Svg Vector Icons : http://www.onlinewebfonts.com/icon -->
<!DOCTYPE svg PUBLIC "-//W3C//DTD SVG 1.1//EN" "http://www.w3.org/Graphics/SVG/1.1/DTD/svg11.dtd">
<svg version="1.1" xmlns="http://www.w3.org/2000/svg" xmlns:xlink="http://www.w3.org/1999/xlink" x="0px" y="0px" viewBox="0 0 1000 1000" enable-background="new 0 0 1000 1000" xml:space="preserve">
<metadata> Svg Vector Icons : http://www.onlinewebfonts.com/icon </metadata>
<g><g transform="translate(0.000000,511.000000) scale(0.100000,-0.100000)"><path d="M417.8,3685.5c-54.9-27.4-135.3-90.2-178.4-137.2c-150.9-170.5-139.2,98-139.2-3438.3c0-3536.3-11.8-3267.7,139.2-3438.3c43.1-47,123.5-109.8,178.4-137.2l101.9-51h4481.1h4481.1l101.9,51c54.9,27.4,137.2,90.2,178.4,139.2c149,168.6,141.1-41.2,135.2,2946.2l-5.9,2675.7l-45.1,88.2c-58.8,113.7-129.4,186.2-239.2,250.9l-88.2,52.9l-2068.1,9.8l-2068.1,9.8l-1023.2,515.5l-1023.2,513.6H1927.2H519.7L417.8,3685.5z M4295.1,2903.3l1038.9-519.5h2066.1h2068.1l54.9-47l54.9-47l5.9-305.8l5.9-305.8H6514.1H3436.6l-290.1-305.8l-290.1-305.8l-78.4,86.3c-43.1,45.1-172.5,184.3-288.2,305.8L2282,1678.2h-935h-935l5.9,825.3l5.9,825.3l54.9,47l54.9,47h1362.4h1360.4L4295.1,2903.3z M2332.9,1168.5l182.3-196h-74.5c-143.1,0-215.6-147-127.4-256.8c33.3-41.2,56.8-47,215.6-52.9l178.4-7.9V451.1V247.2h-170.5c-147,0-176.4-5.9-215.6-43.1c-56.8-52.9-58.8-150.9-7.8-213.7c33.3-41.2,56.8-47.1,215.6-52.9l178.4-7.9v-203.8v-203.9h-170.5c-203.9,0-260.7-33.3-260.7-158.8c0-117.6,64.7-154.9,268.6-154.9h164.7l-5.9-160.7l-5.9-162.7l-196-9.8c-207.8-9.8-243.1-21.6-327.4-111.7c-109.8-113.7-113.7-147-113.7-813.5c0-362.6,7.8-642.9,19.6-686.1c27.4-94.1,103.9-184.2,198-231.3c68.6-35.3,117.6-39.2,574.4-39.2c303.8,0,521.4,7.9,554.8,21.6c74.5,27.4,180.3,131.3,213.7,207.8c21.6,49,27.4,203.9,27.4,715.5c0,625.3-2,652.8-41.2,737.1c-29.4,56.9-72.5,105.9-131.3,143.1c-82.3,52.9-105.9,56.9-272.5,56.9H3021v166.6v166.6h158.8c149,0,160.7,3.9,215.6,56.9c64.7,64.7,68.6,98,27.4,176.4c-37.2,72.5-60.8,80.4-247,80.4H3021v205.8v205.8h158.8c149,0,160.7,3.9,217.6,58.8c49,51,56.8,70.6,47,123.5c-19.6,105.9-72.5,131.3-258.8,131.3H3021v203.9v203.9l168.6,5.9c156.8,7.8,170.5,11.8,217.6,64.7c37.2,45.1,45.1,70.6,37.2,117.6c-17.6,82.3-54.9,115.6-152.9,127.4l-84.3,11.8l176.4,190.1l176.4,188.2l3014.8,2l3012.9,2l-3.9-2236.6l-5.9-2236.6l-54.9-47l-54.9-47.1H5000.8H533.4l-54.9,47.1l-54.9,47l-5.9,2236.6l-3.9,2236.6h868.4h870.4L2332.9,1168.5z M3334.6-1781.6v-343h-480.3h-480.3v343v343h480.3h480.3V-1781.6z M3334.6-2565.7v-127.4h-480.3h-480.3v113.7c0,62.7,5.9,121.5,13.7,127.4c5.9,7.9,223.5,13.7,480.3,13.7h466.5V-2565.7z"/></g></g>
</svg>